<?xml version="1.0" encoding="iso-8859-1"?>
<!-- Generator: Adobe Illustrator 16.0.0, SVG Export Plug-In . SVG Version: 6.00 Build 0)  -->
<!DOCTYPE svg PUBLIC "-//W3C//DTD SVG 1.1//EN" "http://www.w3.org/Graphics/SVG/1.1/DTD/svg11.dtd">
<svg version="1.1" id="Layer" xmlns="http://www.w3.org/2000/svg" xmlns:xlink="http://www.w3.org/1999/xlink" x="0px" y="0px"
	 width="24px" height="24px" viewBox="0 0 24 24" style="enable-background:new 0 0 24 24;" xml:space="preserve">
<path style="fill:#231F20;" d="M22.073,5.431l-0.266-1.442c-0.195-1.062-1.237-1.781-2.323-1.578L4.629,5.12H3
	c-1.102,0-2,0.889-2,1.975v2.742v0.429v1.062v1.687v6.636c0,1.089,0.898,1.975,2,1.975h18c1.102,0,2-0.886,2-1.975v-6.636v-1.687
	v-1.062V9.837V7.095C23,6.396,22.627,5.786,22.073,5.431z M19.731,3.755c0.334-0.055,0.666,0.161,0.723,0.483l0.143,0.882H12.27
	L19.731,3.755z M3,6.494h18c0.337,0,0.625,0.271,0.625,0.601v0.883C21.428,7.914,21.219,7.868,21,7.868H3
	c-0.219,0-0.428,0.046-0.625,0.109V7.095C2.375,6.765,2.663,6.494,3,6.494z M21.625,11.327v1.687v6.636
	c0,0.325-0.288,0.602-0.625,0.602H3c-0.337,0-0.625-0.276-0.625-0.602v-6.636v-1.687v-1.062V9.837c0-0.324,0.288-0.595,0.625-0.595
	h18c0.337,0,0.625,0.271,0.625,0.595v0.429V11.327z"/>
</svg>
